<svg width="239" height="374" viewBox="0 0 239 374" fill="none" xmlns="http://www.w3.org/2000/svg">
<path d="M65.4693 227.856C68.9151 230.105 78.1643 235.503 80.3406 235.503C82.5168 235.503 83.0609 232.579 87.7762 231.005C88.3202 230.78 88.8643 230.78 89.4084 230.78C89.4084 230.105 89.4084 229.655 89.227 228.756C88.6829 224.707 87.4135 217.059 87.4135 217.059L75.8066 218.634C75.8066 218.634 71.6355 215.26 66.5575 213.46C64.3812 212.785 62.3863 213.01 60.5727 214.135C60.21 215.485 59.4846 217.959 59.3032 219.533C59.3032 221.783 62.0236 225.607 65.4693 227.856Z" fill="#66302D"/>
<path d="M58.0338 222.232C60.3915 229.43 68.3712 232.579 71.0915 234.154C73.8119 235.728 80.1593 240.677 84.3305 238.878C87.595 237.303 89.5899 235.953 89.4085 230.78C88.8645 230.78 88.3204 230.78 87.7763 231.005C83.0611 232.579 82.517 235.504 80.3407 235.504C78.1644 235.504 68.9152 230.105 65.4694 227.856C62.0237 225.606 59.3033 221.558 59.4847 219.533C59.666 218.184 60.2101 215.709 60.7542 214.135C58.2152 215.934 56.9457 218.634 58.0338 222.232Z" fill="#4C2522"/>
<path d="M76.5321 218.408C75.8067 217.959 68.3711 214.36 68.3711 214.36C68.3711 214.36 64.7439 215.709 67.2829 218.408C68.9151 220.208 71.2728 221.557 74.5372 222.907C76.7135 223.807 80.8847 218.633 80.8847 218.633L76.5321 218.408Z" fill="#C2EBFF"/>
<path d="M159.594 228.98C159.594 228.98 154.335 230.78 137.287 223.132C120.421 215.485 103.736 194.116 103.736 194.116C103.736 194.116 102.104 201.314 97.2071 208.512C90.4969 218.409 90.6783 222.907 88.8647 226.956C82.3359 230.555 77.6206 219.983 77.6206 219.983C77.6206 219.983 87.2325 195.916 91.041 185.794C93.2173 179.945 95.2122 174.997 99.7461 173.647C103.373 172.523 105.912 172.748 113.348 177.021C127.312 185.119 150.707 197.265 150.707 197.265L159.594 228.98Z" fill="#8E8AAB"/>
<path d="M121.872 181.745C121.872 181.745 123.867 188.718 128.4 191.867C132.934 194.791 138.194 196.366 139.1 195.916C140.007 195.241 139.1 191.192 139.1 191.192L121.872 181.745Z" fill="#C2EBFF"/>
<path d="M237.577 364.164C237.577 360.565 235.764 347.294 234.132 343.246C232.137 338.072 232.318 332.674 232.318 332.674C227.966 328.625 225.608 324.576 225.608 324.576C225.608 324.576 219.623 333.574 216.54 334.698C218.172 343.695 222.706 354.717 224.701 362.59C225.789 366.638 227.059 370.237 228.872 372.262C228.872 372.262 230.505 371.137 232.318 369.787C234.313 368.438 237.577 367.538 237.577 364.164Z" fill="#66302D"/>
<path d="M235.945 373.387C241.023 371.363 238.484 355.617 237.396 350.444C236.126 345.27 236.852 336.723 232.318 332.674C232.318 332.674 232.137 337.848 234.131 343.246C235.764 347.295 237.577 360.566 237.577 364.165C237.577 367.764 234.131 368.663 232.318 369.788C230.504 371.138 228.872 372.262 228.872 372.262C230.504 374.062 232.681 374.512 235.945 373.387Z" fill="#4C2522"/>
<path d="M218.354 333.574C218.354 333.574 221.074 344.145 222.707 348.644C224.339 353.143 226.515 357.641 227.785 356.517C229.598 355.167 229.054 350.443 226.878 343.695C225.064 337.847 221.981 329.3 221.981 329.3L218.354 333.574Z" fill="#C2EBFF"/>
<path d="M78.3461 84.3495C74.5376 77.3766 62.5681 60.0568 51.5053 46.336C39.3544 31.4905 0 0 0 0C0 0 34.0951 31.0406 49.5104 48.8102C61.1172 62.3061 75.6257 83.8996 77.0766 85.924C77.6207 85.2492 77.9834 84.7993 78.3461 84.3495Z" fill="#0092FF"/>
<path d="M141.821 125.962C137.65 117.19 119.695 116.965 114.617 113.141C108.451 108.192 87.5953 91.7725 87.5953 91.7725C87.5953 91.7725 85.2377 91.7725 83.4241 94.0218C81.0665 96.721 82.5173 100.545 82.5173 100.545C82.5173 100.545 99.0208 120.564 106.638 126.412C118.607 135.409 132.39 145.081 132.39 145.081L141.821 125.962Z" fill="#8E8AAB"/>
<path d="M210.374 291.736C204.026 278.915 193.507 272.617 191.331 268.118C189.155 263.62 186.435 232.129 180.087 219.983C177.729 201.089 165.397 194.791 163.765 188.493C162.133 182.195 164.672 169.148 161.951 150.929C159.231 132.71 155.06 130.46 155.06 130.46C155.06 130.46 139.826 115.615 133.297 119.439C126.768 123.262 124.592 137.658 124.048 149.355C123.504 161.501 128.219 172.747 132.753 187.143C137.287 201.539 137.287 215.259 141.821 224.257C143.997 228.53 150.163 238.877 150.163 238.877C150.163 238.877 165.216 260.246 171.019 271.942C177.004 283.864 182.626 288.362 196.046 305.457C205.477 317.378 216.54 335.823 216.54 335.823C216.54 335.823 219.442 336.498 221.799 334.923C226.152 332.224 226.696 325.701 226.696 325.701C226.696 325.701 216.721 304.557 210.374 291.736Z" fill="#8E8AAB"/>
<path d="M141.095 96.2708C140.007 97.1705 134.385 96.0459 133.297 107.067C132.209 116.964 135.655 121.913 137.287 122.588C138.194 123.038 141.277 123.038 141.277 123.038C141.277 123.038 141.639 129.111 140.188 131.585C141.277 134.284 152.702 127.536 152.702 127.536C152.702 127.536 150.888 126.412 151.251 121.013C151.614 114.265 153.427 104.593 152.158 101.219C149.8 94.4714 144.178 93.7966 141.095 96.2708Z" fill="#FFC5B3"/>
<path d="M150.345 121.913C150.345 121.913 157.418 112.241 155.604 101.669C153.79 91.0974 147.08 90.4226 143.453 89.5229C138.738 88.3982 136.743 86.5988 136.743 86.5988C136.743 86.5988 136.562 90.1977 137.287 91.5473C136.199 92.447 133.116 89.073 133.116 89.073C133.116 89.073 131.665 93.1218 134.204 95.3711C133.297 96.2708 130.033 96.4957 130.033 96.4957C130.033 96.4957 131.665 102.794 134.748 103.469C136.562 108.867 141.095 115.615 144.541 118.539C149.075 122.363 150.345 121.913 150.345 121.913Z" fill="#361A17"/>
<path d="M137.287 111.116C137.287 111.116 139.644 106.168 140.732 111.116C141.639 115.84 138.375 117.414 138.375 117.414L137.287 111.116Z" fill="#FFC5B3"/>
<path d="M154.879 130.686C154.879 130.686 155.06 128.886 152.884 127.312C152.884 125.962 151.795 124.387 151.795 124.387C151.795 124.387 142.909 125.737 140.37 131.36C137.831 136.759 135.655 136.534 133.297 135.634C130.758 134.734 129.67 133.61 129.67 133.61C129.67 133.61 126.95 137.883 129.67 141.033C132.39 144.182 142.002 141.932 144.36 138.108C146.717 134.734 153.065 131.36 154.879 130.686Z" fill="#8E8AAB"/>
<path d="M158.868 102.569C158.868 102.569 158.324 114.04 156.873 119.664C155.967 123.488 153.79 126.637 152.884 127.536C152.34 125.962 152.34 125.962 151.795 124.612C148.35 127.311 145.448 127.761 140.733 133.834C137.287 138.333 134.023 139.458 131.302 137.658C128.582 135.634 128.945 131.36 131.302 126.187C130.939 116.515 130.758 100.995 130.758 100.995L158.868 102.569Z" fill="#8E8AAB"/>
<path d="M130.033 105.943C130.033 105.943 144.723 114.715 152.34 112.016C154.153 111.341 157.599 109.317 158.506 107.967C160.319 100.769 160.138 92.6717 154.879 88.8479C146.355 82.5499 137.287 82.7748 137.287 82.7748C137.287 82.7748 126.043 94.6961 130.033 105.943Z" fill="#66302D"/>
<path d="M142.909 83.4499C138.012 80.076 129.126 79.1762 126.224 96.9458C122.597 120.114 126.587 124.388 131.302 125.737C131.302 125.737 131.846 108.417 136.018 93.3469C137.287 88.6234 140.189 86.3741 142.909 83.4499Z" fill="#4C2522"/>
<path d="M131.484 130.235C131.484 130.235 134.567 127.086 138.92 124.612C143.272 121.913 148.169 119.664 148.169 119.664C148.169 119.664 142.909 125.287 138.92 128.211C134.93 131.135 131.484 130.235 131.484 130.235Z" fill="#8E8AAB"/>
<path d="M162.133 190.967C162.133 190.967 160.138 195.016 157.236 197.265C154.516 199.515 148.168 201.989 148.168 201.989C148.168 201.989 154.697 204.014 158.687 199.74C162.858 195.466 162.133 190.967 162.133 190.967Z" fill="#8E8AAB"/>
<path d="M80.1597 86.8238C76.8953 91.7724 72.18 93.7968 69.641 91.3225C67.102 88.8483 67.8275 82.5501 71.0919 77.6016C74.3563 72.653 79.0715 70.6286 81.6105 73.1029C84.1495 75.8021 83.6054 81.8753 80.1597 86.8238Z" fill="#C2EBFF"/>
<path d="M81.2481 87.7239C77.9837 92.6724 73.2684 94.6968 70.7294 92.2226C68.1904 89.7483 68.9158 83.4501 72.1803 78.5016C75.4447 73.553 80.1599 71.5286 82.6989 74.0029C85.0566 76.7021 84.5125 82.7753 81.2481 87.7239Z" fill="#8E8AAB"/>
<path d="M87.7768 91.7719C87.7768 91.7719 87.2328 85.0241 85.2378 80.7504C83.2429 76.4768 79.2531 75.577 75.9886 79.8507C72.7242 84.1243 73.4497 86.8235 74.7191 91.547C75.9886 96.2705 82.5175 100.544 82.5175 100.544L87.7768 91.7719Z" fill="#C2EBFF"/>
<path d="M87.7766 91.7725C87.7766 91.7725 84.3308 91.7725 83.0612 94.6965C81.7917 97.6205 82.6985 100.545 82.6985 100.545L85.2375 103.469C85.2375 103.469 86.1443 98.5203 87.0511 96.9458C88.3206 94.9214 91.041 94.2467 91.041 94.2467L87.7766 91.7725Z" fill="#66302D"/>
<path d="M190.424 271.943L188.974 284.989C188.974 284.989 194.596 282.289 190.424 271.943Z" fill="#8E8AAB"/>
<path d="M188.43 270.818C188.43 270.818 185.347 273.292 183.352 275.542C181.357 277.566 180.632 280.041 180.632 280.041C180.632 280.041 184.622 278.466 186.073 276.217C187.523 273.967 188.43 270.818 188.43 270.818Z" fill="#8E8AAB"/>
<path d="M138.919 141.932C143.997 137.883 151.977 140.133 160.5 151.154C168.299 161.276 183.714 172.748 194.777 183.545C205.658 194.116 208.197 197.265 212.913 204.913C211.643 207.162 207.835 213.46 207.835 213.46C207.835 213.46 181.357 194.341 171.019 185.569C158.506 174.997 154.516 175.897 143.997 168.249C134.929 161.051 131.483 148.005 138.919 141.932Z" fill="#8E8AAB"/>
<path d="M207.291 196.816C207.291 196.816 205.477 197.49 203.301 201.314C201.125 205.138 200.581 208.062 200.581 208.062L207.835 213.46L212.913 204.913L207.291 196.816Z" fill="#66302D"/>
<path d="M212.913 204.913C214.182 205.813 216.177 208.512 220.892 211.211C225.608 214.135 228.691 217.509 229.598 221.783C230.504 226.281 231.411 229.43 229.779 229.88C227.059 230.555 225.97 225.157 225.064 223.807C224.157 222.233 221.618 220.208 219.26 219.534C216.903 218.859 217.628 222.008 218.716 222.908C219.986 223.807 222.162 226.506 221.074 228.531C220.53 229.43 216.903 224.932 216.359 224.257C215.814 223.582 213.457 219.983 211.099 216.609C209.467 214.135 207.109 212.561 207.109 212.561C207.109 212.561 208.198 205.138 212.913 204.913Z" fill="#FFC5B3"/>
<path d="M149.982 239.102C149.982 239.102 153.79 235.728 156.148 236.628C159.594 237.978 162.858 245.401 165.941 251.249C169.206 257.097 165.035 261.821 165.035 261.821C165.035 261.821 158.143 251.024 155.785 247.875C153.609 244.726 149.982 239.102 149.982 239.102Z" fill="#C2EBFF"/>
<path d="M145.629 149.805C145.629 149.805 152.884 148.005 157.418 154.528C159.413 157.452 161.589 159.926 163.765 160.826C166.848 162.176 169.931 161.276 169.931 161.276L172.652 163.75C172.652 163.75 165.216 167.349 160.501 163.75C156.329 160.826 157.236 157.902 152.884 153.628C150.345 151.379 145.629 149.805 145.629 149.805Z" fill="#C2EBFF"/>
<path d="M149.982 155.203C152.884 159.477 151.977 163.076 156.511 167.124C162.496 172.523 169.206 167.349 169.206 167.349C169.206 167.349 163.04 168.924 158.506 165.1C153.972 161.051 153.79 156.778 149.982 155.203Z" fill="#C2EBFF"/>
</svg>
