<svg width="239" height="374" viewBox="0 0 239 374" fill="none" xmlns="http://www.w3.org/2000/svg">
<path d="M173.53 227.856C170.084 230.105 160.835 235.503 158.659 235.503C156.483 235.503 155.939 232.579 151.223 231.005C150.679 230.78 150.135 230.78 149.591 230.78C149.591 230.105 149.591 229.655 149.772 228.755C150.317 224.707 151.586 217.059 151.586 217.059L163.193 218.634C163.193 218.634 167.364 215.26 172.442 213.46C174.618 212.785 176.613 213.01 178.427 214.135C178.79 215.485 179.515 217.959 179.696 219.533C179.696 221.783 176.976 225.606 173.53 227.856Z" fill="#66302D"/>
<path d="M180.966 222.232C178.608 229.43 170.629 232.579 167.908 234.154C165.188 235.728 158.84 240.677 154.669 238.877C151.405 237.303 149.41 235.953 149.591 230.78C150.135 230.78 150.679 230.78 151.223 231.005C155.939 232.579 156.483 235.503 158.659 235.503C160.835 235.503 170.085 230.105 173.53 227.856C176.976 225.606 179.696 221.558 179.515 219.533C179.334 218.184 178.79 215.709 178.246 214.135C180.785 215.934 182.054 218.633 180.966 222.232Z" fill="#4C2522"/>
<path d="M162.467 218.408C163.193 217.958 170.628 214.359 170.628 214.359C170.628 214.359 174.256 215.709 171.717 218.408C170.084 220.208 167.727 221.557 164.462 222.907C162.286 223.806 158.115 218.633 158.115 218.633L162.467 218.408Z" fill="#C2EBFF"/>
<path d="M79.4059 228.981C79.4059 228.981 84.6652 230.78 101.713 223.132C118.579 215.485 135.264 194.116 135.264 194.116C135.264 194.116 136.896 201.314 141.793 208.512C148.503 218.409 148.321 222.907 150.135 226.956C156.664 230.555 161.379 219.983 161.379 219.983C161.379 219.983 151.767 195.916 147.959 185.794C145.782 179.946 143.788 174.997 139.254 173.648C135.626 172.523 133.087 172.748 125.652 177.021C111.687 185.119 88.2923 197.265 88.2923 197.265L79.4059 228.981Z" fill="white"/>
<path d="M117.128 181.745C117.128 181.745 115.133 188.718 110.599 191.867C106.065 194.791 100.806 196.365 99.8993 195.916C98.9925 195.241 99.8993 191.192 99.8993 191.192L117.128 181.745Z" fill="#C2EBFF"/>
<path d="M1.42282 364.164C1.42282 360.565 3.23638 347.294 4.86859 343.245C6.86351 338.072 6.68216 332.674 6.68216 332.674C11.0347 328.625 13.3924 324.576 13.3924 324.576C13.3924 324.576 19.3771 333.573 22.4602 334.698C20.828 343.695 16.2941 354.717 14.2991 362.589C13.211 366.638 11.9415 370.237 10.128 372.261C10.128 372.261 8.49572 371.137 6.68216 369.787C4.68723 368.438 1.42282 367.538 1.42282 364.164Z" fill="#66302D"/>
<path d="M3.05523 373.387C-2.02277 371.363 0.51625 355.617 1.60439 350.444C2.87389 345.27 2.14844 336.723 6.68237 332.674C6.68237 332.674 6.86373 337.848 4.8688 343.246C3.23658 347.295 1.42302 360.566 1.42302 364.165C1.42302 367.764 4.8688 368.663 6.68237 369.788C8.49594 371.138 10.1282 372.262 10.1282 372.262C8.49596 374.062 6.31966 374.512 3.05523 373.387Z" fill="#4C2522"/>
<path d="M20.6465 333.574C20.6465 333.574 17.9261 344.145 16.2939 348.644C14.6617 353.142 12.4854 357.641 11.216 356.516C9.40239 355.167 9.94646 350.443 12.1227 343.695C13.9363 337.847 17.0194 329.3 17.0194 329.3L20.6465 333.574Z" fill="#C2EBFF"/>
<path d="M160.654 84.3495C164.462 77.3766 176.432 60.0568 187.495 46.336C199.646 31.4905 239 0 239 0C239 0 204.905 31.0406 189.49 48.8102C177.883 62.3061 163.374 83.8996 161.923 85.924C161.379 85.2492 161.017 84.7993 160.654 84.3495Z" fill="#0092FF"/>
<path d="M97.1791 125.962C101.35 117.19 119.305 116.965 124.383 113.141C130.549 108.192 151.405 91.7725 151.405 91.7725C151.405 91.7725 153.762 91.7725 155.576 94.0218C157.934 96.721 156.483 100.545 156.483 100.545C156.483 100.545 139.979 120.564 132.362 126.412C120.393 135.409 106.61 145.081 106.61 145.081L97.1791 125.962Z" fill="white"/>
<path d="M28.6266 291.736C34.9741 278.915 45.4928 272.617 47.669 268.118C49.8453 263.62 52.5657 232.129 58.9131 219.983C61.2708 201.089 73.603 194.791 75.2352 188.493C76.8675 182.195 74.3285 169.148 77.0488 150.929C79.7692 132.71 83.9404 130.46 83.9404 130.46C83.9404 130.46 99.1743 115.615 105.703 119.439C112.232 123.262 114.408 137.658 114.952 149.355C115.496 161.501 110.781 172.747 106.247 187.143C101.713 201.539 101.713 215.259 97.1794 224.257C95.0031 228.53 88.837 238.877 88.837 238.877C88.837 238.877 73.7844 260.246 67.981 271.942C61.9962 283.864 56.3742 288.362 42.9538 305.457C33.5232 317.378 22.4604 335.823 22.4604 335.823C22.4604 335.823 19.5587 336.498 17.2011 334.923C12.8485 332.224 12.3045 325.701 12.3045 325.701C12.3045 325.701 22.2791 304.557 28.6266 291.736Z" fill="white"/>
<path d="M97.9048 96.2708C98.9929 97.1705 104.615 96.0459 105.703 107.067C106.791 116.964 103.345 121.913 101.713 122.588C100.806 123.038 97.7234 123.038 97.7234 123.038C97.7234 123.038 97.3607 129.111 98.8116 131.585C97.7234 134.284 86.2979 127.536 86.2979 127.536C86.2979 127.536 88.1115 126.412 87.7488 121.013C87.3861 114.265 85.5725 104.593 86.842 101.219C89.1996 94.4714 94.8217 93.7966 97.9048 96.2708Z" fill="#FFC5B3"/>
<path d="M88.6553 121.913C88.6553 121.913 81.5824 112.241 83.3959 101.669C85.2095 91.0973 91.9197 90.4225 95.5469 89.5227C100.262 88.3981 102.257 86.5986 102.257 86.5986C102.257 86.5986 102.438 90.1975 101.713 91.5471C102.801 92.4469 105.884 89.0729 105.884 89.0729C105.884 89.0729 107.335 93.1217 104.796 95.371C105.703 96.2707 108.967 96.4956 108.967 96.4956C108.967 96.4956 107.335 102.794 104.252 103.469C102.438 108.867 97.9045 115.615 94.4587 118.539C89.9248 122.363 88.6553 121.913 88.6553 121.913Z" fill="#361A17"/>
<path d="M101.713 111.116C101.713 111.116 99.3555 106.168 98.2673 111.116C97.3606 115.84 100.625 117.414 100.625 117.414L101.713 111.116Z" fill="#FFC5B3"/>
<path d="M84.1215 130.686C84.1215 130.686 83.9401 128.886 86.1164 127.312C86.1164 125.962 87.2045 124.388 87.2045 124.388C87.2045 124.388 96.091 125.737 98.63 131.361C101.169 136.759 103.345 136.534 105.703 135.634C108.242 134.735 109.33 133.61 109.33 133.61C109.33 133.61 112.05 137.884 109.33 141.033C106.61 144.182 96.9978 141.933 94.6401 138.109C92.2825 134.735 85.935 131.361 84.1215 130.686Z" fill="white"/>
<path d="M80.1316 102.569C80.1316 102.569 80.6757 114.041 82.1265 119.664C83.0333 123.488 85.2096 126.637 86.1164 127.536C86.6604 125.962 86.6605 125.962 87.2045 124.612C90.6503 127.312 93.552 127.761 98.2673 133.835C101.713 138.333 104.977 139.458 107.698 137.658C110.418 135.634 110.055 131.36 107.698 126.187C108.061 116.515 108.242 100.995 108.242 100.995L80.1316 102.569Z" fill="white"/>
<path d="M108.967 105.943C108.967 105.943 94.2771 114.715 86.6601 112.016C84.8466 111.341 81.4008 109.317 80.494 107.967C78.6804 100.769 78.8618 92.6719 84.1211 88.848C92.6449 82.55 101.713 82.7749 101.713 82.7749C101.713 82.7749 112.957 94.6962 108.967 105.943Z" fill="#66302D"/>
<path d="M96.0909 83.4499C100.988 80.076 109.874 79.1762 112.776 96.9458C116.403 120.114 112.413 124.388 107.698 125.737C107.698 125.737 107.154 108.417 102.982 93.3469C101.713 88.6234 98.8113 86.3741 96.0909 83.4499Z" fill="#4C2522"/>
<path d="M107.516 130.236C107.516 130.236 104.433 127.087 100.081 124.612C95.7281 121.913 90.8315 119.664 90.8315 119.664C90.8315 119.664 96.0908 125.287 100.081 128.211C104.071 131.135 107.516 130.236 107.516 130.236Z" fill="white"/>
<path d="M76.8673 190.967C76.8673 190.967 78.8622 195.016 81.7639 197.265C84.4843 199.515 90.8318 201.989 90.8318 201.989C90.8318 201.989 84.3029 204.014 80.313 199.74C76.1418 195.466 76.8673 190.967 76.8673 190.967Z" fill="white"/>
<path d="M158.84 86.8238C162.105 91.7724 166.82 93.7968 169.359 91.3225C171.898 88.8483 171.173 82.5501 167.908 77.6016C164.644 72.653 159.928 70.6286 157.389 73.1029C154.85 75.8021 155.395 81.8753 158.84 86.8238Z" fill="#C2EBFF"/>
<path d="M157.752 87.7238C161.017 92.6723 165.732 94.6967 168.271 92.2224C170.81 89.7482 170.084 83.45 166.82 78.5015C163.556 73.5529 158.84 71.5285 156.301 74.0028C153.944 76.702 154.488 82.7752 157.752 87.7238Z" fill="white"/>
<path d="M151.223 91.7719C151.223 91.7719 151.767 85.0241 153.762 80.7504C155.757 76.4768 159.747 75.577 163.011 79.8507C166.276 84.1243 165.55 86.8235 164.281 91.547C163.011 96.2705 156.483 100.544 156.483 100.544L151.223 91.7719Z" fill="#C2EBFF"/>
<path d="M151.223 91.7725C151.223 91.7725 154.669 91.7725 155.939 94.6965C157.208 97.6205 156.301 100.545 156.301 100.545L153.762 103.469C153.762 103.469 152.855 98.5203 151.949 96.9458C150.679 94.9214 147.959 94.2467 147.959 94.2467L151.223 91.7725Z" fill="#66302D"/>
<path d="M48.5755 271.942L50.0264 284.988C50.0264 284.988 44.4044 282.289 48.5755 271.942Z" fill="white"/>
<path d="M50.57 270.818C50.57 270.818 53.6531 273.292 55.648 275.542C57.643 277.566 58.3684 280.04 58.3684 280.04C58.3684 280.04 54.3785 278.466 52.9277 276.216C51.4768 273.967 50.57 270.818 50.57 270.818Z" fill="white"/>
<path d="M100.081 141.932C95.0027 137.883 87.023 140.133 78.4993 151.154C70.7009 161.276 55.2856 172.748 44.2228 183.544C33.3414 194.116 30.8024 197.265 26.0871 204.913C27.3566 207.162 31.1651 213.46 31.1651 213.46C31.1651 213.46 57.6432 194.341 67.9806 185.569C80.4942 174.997 84.484 175.897 95.0027 168.249C104.071 161.051 107.516 148.005 100.081 141.932Z" fill="white"/>
<path d="M31.7092 196.816C31.7092 196.816 33.5228 197.491 35.6991 201.314C37.8754 205.138 38.4194 208.062 38.4194 208.062L31.1651 213.461L26.0871 204.913L31.7092 196.816Z" fill="#66302D"/>
<path d="M26.087 204.913C24.8175 205.813 22.8225 208.512 18.1073 211.211C13.392 214.135 10.309 217.509 9.40219 221.783C8.4954 226.281 7.58862 229.43 9.22083 229.88C11.9412 230.555 13.0293 225.157 13.9361 223.807C14.8429 222.233 17.3819 220.208 19.7395 219.534C22.0971 218.859 21.3717 222.008 20.2836 222.908C19.0141 223.807 16.8378 226.506 17.9259 228.531C18.47 229.43 22.0971 224.932 22.6412 224.257C23.1853 223.582 25.5429 219.983 27.9005 216.609C29.5327 214.135 31.8904 212.561 31.8904 212.561C31.8904 212.561 30.8022 205.138 26.087 204.913Z" fill="#FFC5B3"/>
<path d="M89.0181 239.102C89.0181 239.102 85.2096 235.728 82.8519 236.628C79.4062 237.978 76.1417 245.401 73.0587 251.249C69.7943 257.097 73.9655 261.821 73.9655 261.821C73.9655 261.821 80.857 251.024 83.2147 247.875C85.3909 244.726 89.0181 239.102 89.0181 239.102Z" fill="#C2EBFF"/>
<path d="M93.3706 149.805C93.3706 149.805 86.1163 148.005 81.5824 154.528C79.5875 157.452 77.4112 159.926 75.2349 160.826C72.1518 162.176 69.0688 161.276 69.0688 161.276L66.3484 163.75C66.3484 163.75 73.7841 167.349 78.4993 163.75C82.6705 160.826 81.7638 157.902 86.1163 153.628C88.6553 151.379 93.3706 149.805 93.3706 149.805Z" fill="#C2EBFF"/>
<path d="M89.0181 155.203C86.1164 159.477 87.0231 163.076 82.4892 167.125C76.5044 172.523 69.7942 167.349 69.7942 167.349C69.7942 167.349 75.9604 168.924 80.4943 165.1C85.0282 161.051 85.2096 156.778 89.0181 155.203Z" fill="#C2EBFF"/>
</svg>
